<mxfile host="Electron" agent="Mozilla/5.0 (Windows NT 10.0; Win64; x64) AppleWebKit/537.36 (KHTML, like Gecko) draw.io/26.0.16 Chrome/132.0.6834.196 Electron/34.2.0 Safari/537.36" version="26.0.16">
  <diagram name="Seite-1" id="IkjPFkrm3NSCvPRxarnA">
    <mxGraphModel dx="1634" dy="955" grid="1" gridSize="10" guides="1" tooltips="1" connect="1" arrows="1" fold="1" page="1" pageScale="1" pageWidth="827" pageHeight="1169" math="0" shadow="0">
      <root>
        <mxCell id="0" />
        <mxCell id="1" parent="0" />
        <mxCell id="N05U6FecY4BFe01yGVfm-10" value="Request" style="edgeStyle=orthogonalEdgeStyle;rounded=0;orthogonalLoop=1;jettySize=auto;html=1;exitX=0.25;exitY=1;exitDx=0;exitDy=0;entryX=0.25;entryY=0;entryDx=0;entryDy=0;" edge="1" parent="1" source="N05U6FecY4BFe01yGVfm-1" target="N05U6FecY4BFe01yGVfm-9">
          <mxGeometry relative="1" as="geometry" />
        </mxCell>
        <mxCell id="N05U6FecY4BFe01yGVfm-1" value="Streamlit User-Interface" style="rounded=0;whiteSpace=wrap;html=1;" vertex="1" parent="1">
          <mxGeometry x="310" y="420" width="150" height="40" as="geometry" />
        </mxCell>
        <mxCell id="N05U6FecY4BFe01yGVfm-8" value="Make inputs and send a request for a prediction&lt;div&gt;Users can also give feedback, if the prediction was correct or not&lt;/div&gt;" style="edgeStyle=orthogonalEdgeStyle;rounded=0;orthogonalLoop=1;jettySize=auto;html=1;entryX=0.5;entryY=0;entryDx=0;entryDy=0;" edge="1" parent="1" source="N05U6FecY4BFe01yGVfm-4" target="N05U6FecY4BFe01yGVfm-1">
          <mxGeometry relative="1" as="geometry" />
        </mxCell>
        <mxCell id="N05U6FecY4BFe01yGVfm-4" value="" style="shape=mxgraph.signs.people.man_1;html=1;pointerEvents=1;fillColor=#000000;strokeColor=none;verticalLabelPosition=bottom;verticalAlign=top;align=center;" vertex="1" parent="1">
          <mxGeometry x="375" y="250" width="20" height="58" as="geometry" />
        </mxCell>
        <mxCell id="N05U6FecY4BFe01yGVfm-7" value="User" style="text;html=1;align=center;verticalAlign=middle;whiteSpace=wrap;rounded=0;" vertex="1" parent="1">
          <mxGeometry x="355" y="210" width="60" height="30" as="geometry" />
        </mxCell>
        <mxCell id="N05U6FecY4BFe01yGVfm-12" value="Prediction" style="edgeStyle=orthogonalEdgeStyle;rounded=0;orthogonalLoop=1;jettySize=auto;html=1;entryX=0.75;entryY=1;entryDx=0;entryDy=0;exitX=0.75;exitY=0;exitDx=0;exitDy=0;" edge="1" parent="1" source="N05U6FecY4BFe01yGVfm-9" target="N05U6FecY4BFe01yGVfm-1">
          <mxGeometry relative="1" as="geometry">
            <Array as="points" />
          </mxGeometry>
        </mxCell>
        <mxCell id="N05U6FecY4BFe01yGVfm-24" value="Sending&lt;div&gt;Inputs&lt;/div&gt;" style="edgeStyle=orthogonalEdgeStyle;rounded=0;orthogonalLoop=1;jettySize=auto;html=1;exitX=0.25;exitY=1;exitDx=0;exitDy=0;entryX=0.25;entryY=0;entryDx=0;entryDy=0;" edge="1" parent="1" source="N05U6FecY4BFe01yGVfm-9" target="N05U6FecY4BFe01yGVfm-13">
          <mxGeometry relative="1" as="geometry" />
        </mxCell>
        <mxCell id="N05U6FecY4BFe01yGVfm-26" value="Sending&lt;div&gt;Converterd Data&lt;/div&gt;" style="edgeStyle=orthogonalEdgeStyle;rounded=0;orthogonalLoop=1;jettySize=auto;html=1;entryX=0;entryY=0.5;entryDx=0;entryDy=0;" edge="1" parent="1" source="N05U6FecY4BFe01yGVfm-9" target="N05U6FecY4BFe01yGVfm-21">
          <mxGeometry relative="1" as="geometry">
            <Array as="points">
              <mxPoint x="100" y="540" />
              <mxPoint x="100" y="788" />
            </Array>
          </mxGeometry>
        </mxCell>
        <mxCell id="N05U6FecY4BFe01yGVfm-9" value="FastAPI" style="rounded=0;whiteSpace=wrap;html=1;fillColor=#f5f5f5;fontColor=#333333;strokeColor=#666666;" vertex="1" parent="1">
          <mxGeometry x="310" y="520" width="150" height="40" as="geometry" />
        </mxCell>
        <mxCell id="N05U6FecY4BFe01yGVfm-16" value="Processing:&lt;div&gt;Cleaning,&lt;/div&gt;&lt;div&gt;Validationg,&amp;nbsp;&lt;/div&gt;&lt;div&gt;Great Expectations&lt;/div&gt;" style="edgeStyle=orthogonalEdgeStyle;rounded=0;orthogonalLoop=1;jettySize=auto;html=1;" edge="1" parent="1" source="N05U6FecY4BFe01yGVfm-13" target="N05U6FecY4BFe01yGVfm-18">
          <mxGeometry relative="1" as="geometry">
            <mxPoint x="540" y="669" as="targetPoint" />
          </mxGeometry>
        </mxCell>
        <mxCell id="N05U6FecY4BFe01yGVfm-20" value="Creating and saving Model" style="edgeStyle=orthogonalEdgeStyle;rounded=0;orthogonalLoop=1;jettySize=auto;html=1;" edge="1" parent="1" source="N05U6FecY4BFe01yGVfm-13">
          <mxGeometry relative="1" as="geometry">
            <mxPoint x="385" y="767.5" as="targetPoint" />
          </mxGeometry>
        </mxCell>
        <mxCell id="N05U6FecY4BFe01yGVfm-25" value="Sending back&lt;div&gt;Converted Data&lt;/div&gt;" style="edgeStyle=orthogonalEdgeStyle;rounded=0;orthogonalLoop=1;jettySize=auto;html=1;exitX=0.75;exitY=0;exitDx=0;exitDy=0;entryX=0.75;entryY=1;entryDx=0;entryDy=0;" edge="1" parent="1" source="N05U6FecY4BFe01yGVfm-13" target="N05U6FecY4BFe01yGVfm-9">
          <mxGeometry relative="1" as="geometry" />
        </mxCell>
        <mxCell id="N05U6FecY4BFe01yGVfm-13" value="Data-Processor" style="rounded=0;whiteSpace=wrap;html=1;fillColor=#f5f5f5;fontColor=#333333;strokeColor=#666666;" vertex="1" parent="1">
          <mxGeometry x="310" y="649" width="150" height="40" as="geometry" />
        </mxCell>
        <mxCell id="N05U6FecY4BFe01yGVfm-15" style="edgeStyle=orthogonalEdgeStyle;rounded=0;orthogonalLoop=1;jettySize=auto;html=1;entryX=0;entryY=0.5;entryDx=0;entryDy=0;" edge="1" parent="1" source="N05U6FecY4BFe01yGVfm-14" target="N05U6FecY4BFe01yGVfm-13">
          <mxGeometry relative="1" as="geometry" />
        </mxCell>
        <mxCell id="N05U6FecY4BFe01yGVfm-14" value="Adult Income Dataset" style="sketch=0;pointerEvents=1;shadow=0;dashed=0;html=1;strokeColor=none;fillColor=#505050;labelPosition=center;verticalLabelPosition=bottom;verticalAlign=top;outlineConnect=0;align=center;shape=mxgraph.office.users.csv_file;" vertex="1" parent="1">
          <mxGeometry x="170" y="647.5" width="59" height="43" as="geometry" />
        </mxCell>
        <mxCell id="N05U6FecY4BFe01yGVfm-18" value="MinIO Bucket&lt;div&gt;(Data-Versioning)&lt;/div&gt;" style="sketch=0;outlineConnect=0;dashed=0;verticalLabelPosition=bottom;verticalAlign=top;align=center;html=1;fontSize=12;fontStyle=0;aspect=fixed;pointerEvents=1;shape=mxgraph.aws4.bucket;fillColor=#000000;strokeColor=#000000;" vertex="1" parent="1">
          <mxGeometry x="620" y="630" width="75" height="78" as="geometry" />
        </mxCell>
        <mxCell id="N05U6FecY4BFe01yGVfm-27" value="Prediction" style="edgeStyle=orthogonalEdgeStyle;rounded=0;orthogonalLoop=1;jettySize=auto;html=1;entryX=1;entryY=0.5;entryDx=0;entryDy=0;" edge="1" parent="1" source="N05U6FecY4BFe01yGVfm-21" target="N05U6FecY4BFe01yGVfm-9">
          <mxGeometry relative="1" as="geometry">
            <Array as="points">
              <mxPoint x="750" y="790" />
              <mxPoint x="750" y="540" />
            </Array>
          </mxGeometry>
        </mxCell>
        <mxCell id="N05U6FecY4BFe01yGVfm-21" value="MLflow" style="rounded=0;whiteSpace=wrap;html=1;fillColor=#f5f5f5;fontColor=#333333;strokeColor=#666666;" vertex="1" parent="1">
          <mxGeometry x="310" y="767.5" width="150" height="40" as="geometry" />
        </mxCell>
        <mxCell id="N05U6FecY4BFe01yGVfm-29" value="" style="verticalLabelPosition=bottom;html=1;verticalAlign=top;align=center;strokeColor=none;fillColor=#00BEF2;shape=mxgraph.azure.health_monitoring;" vertex="1" parent="1">
          <mxGeometry x="431.71" y="658.25" width="25.29" height="21.5" as="geometry" />
        </mxCell>
      </root>
    </mxGraphModel>
  </diagram>
</mxfile>
